<?xml version="1.0" encoding="UTF-8" standalone="no"?>
<!-- Created with Inkscape (http://www.inkscape.org/) -->

<svg
   width="512.04419"
   height="512"
   viewBox="0 0 512.04419 512"
   version="1.1"
   id="SVGRoot"
   sodipodi:docname="logo2.svg"
   inkscape:export-filename="logo.png"
   inkscape:export-xdpi="95.064056"
   inkscape:export-ydpi="95.064056"
   inkscape:version="1.2.2 (b0a8486541, 2022-12-01)"
   xmlns:inkscape="http://www.inkscape.org/namespaces/inkscape"
   xmlns:sodipodi="http://sodipodi.sourceforge.net/DTD/sodipodi-0.dtd"
   xmlns="http://www.w3.org/2000/svg"
   xmlns:svg="http://www.w3.org/2000/svg">
  <sodipodi:namedview
     id="namedview32964"
     pagecolor="#1c1c1c"
     bordercolor="#000000"
     borderopacity="0.25"
     inkscape:showpageshadow="2"
     inkscape:pageopacity="1"
     inkscape:pagecheckerboard="0"
     inkscape:deskcolor="#d1d1d1"
     inkscape:document-units="px"
     showgrid="false"
     inkscape:zoom="1.4142136"
     inkscape:cx="245.7196"
     inkscape:cy="320.31936"
     inkscape:window-width="1920"
     inkscape:window-height="1015"
     inkscape:window-x="0"
     inkscape:window-y="0"
     inkscape:window-maximized="1"
     inkscape:current-layer="SVGRoot" />
  <defs
     id="defs32959">
    <linearGradient
       id="linearGradient35821"
       inkscape:swatch="solid">
      <stop
         style="stop-color:#000000;stop-opacity:1;"
         offset="0"
         id="stop35819" />
    </linearGradient>
    <style
       type="text/css"
       id="style41758"> .feather_een{fill:#0B1719;} </style>
    <style
       type="text/css"
       id="style8452"> .feather_een{fill:#0B1719;} </style>
  </defs>
  <g
     id="g1630"
     transform="matrix(0.99661097,0,0,0.97069036,-0.40565792,3.3685547)"
     style="stroke-width:1.01672">
    <g
       id="g2992"
       transform="matrix(2.5225677,0,0,2.7467615,-389.19674,-409.18106)"
       style="stroke-width:0.386251">
      <g
         id="g2977"
         style="stroke-width:0.386251">
        <path
           d="m 329.40966,305.82668 c -3.92376,6.85203 -7.54544,12.82395 -8.94727,15.16024 2.01619,-2.26908 8.06816,-8.40422 14.53762,-15.71071 -1.93133,0.22083 -3.79139,0.40325 -5.59035,0.55047"
           fill="#000000"
           id="path32975"
           style="fill:#d4aa00;stroke-width:1.27305" />
        <path
           d="m 273.82862,269.60469 a 10.182789,9.601165 0 0 0 0,19.20233 10.182789,9.601165 0 1 0 0,-19.20233"
           fill="#000000"
           id="path32977"
           style="fill:#d4aa00;stroke-width:1.27305" />
        <path
           d="m 238.78287,269.60469 a 10.182789,9.601165 0 0 0 0,19.20233 10.182789,9.601165 0 1 0 0,-19.20233"
           fill="#000000"
           id="path32979"
           style="fill:#d4aa00;stroke-width:1.27305" />
        <path
           d="m 353.74992,297.11843 c -11.78149,-4.82299 -42.49956,-2.56031 -50.36406,-4.46134 0.72297,-1.6354 1.2423,-3.32841 1.63264,-5.05342 9.54806,-1.83062 21.78098,-5.15262 35.58883,-11.23336 4.66033,-2.05465 0.94361,6.90004 -4.56188,17.40371 2.88512,-0.0224 5.70914,0.0128 8.40758,0.11842 9.41908,-12.28309 15.47444,-24.22694 4.17155,-25.49429 -6.11985,-0.68488 -15.1418,1.13614 -23.74965,3.25479 15.18593,-12.93916 35.39197,-32.34951 20.66766,-35.77393 -6.71385,-1.55859 -17.71126,-0.27523 -27.38491,1.03373 -7.38591,-26.74564 -46.30452,-38.87191 -58.32021,-42.01149 v -47.19611 h -7.12455 v 47.19931 c -12.01569,3.13638 -50.9343,15.26585 -58.31682,42.01149 -9.67704,-1.30896 -20.67445,-2.59552 -27.3849,-1.03373 -14.72092,3.42122 5.48173,22.83477 20.66766,35.77393 -8.60785,-2.11545 -17.63319,-3.93647 -23.74965,-3.25479 -11.30629,1.26735 -5.25093,13.2112 4.16815,25.49429 a 170.01858,160.30741 0 0 1 8.40419,-0.11842 c -5.50549,-10.50367 -9.22221,-19.45835 -4.56188,-17.40371 13.81125,6.07754 26.04077,9.40274 35.59223,11.23336 0.39034,1.72501 0.91305,3.41802 1.63264,5.05342 -7.86451,1.90103 -38.58258,-0.36165 -50.36406,4.46134 -20.2332,8.2826 36.17265,37.63015 44.37658,42.60675 -6.5102,-5.70629 -44.53951,-38.59987 -34.0716,-37.15969 20.73215,2.85154 36.98048,1.60979 47.03768,0.0544 1.37807,1.38897 2.88512,2.70113 4.51437,3.93008 -6.86659,1.70901 -17.80969,3.76045 -22.62276,7.10166 -10.92952,7.59452 27.82277,18.13979 33.56246,20.10163 -4.83342,-2.62432 -33.02616,-17.65974 -26.47184,-18.12699 9.7585,-0.69129 17.6264,-2.4611 23.41701,-4.24052 7.91202,3.88207 17.45329,6.15435 27.73451,6.15435 9.86373,0 19.03163,-2.11226 26.74679,-5.70949 5.86868,1.88503 14.07261,3.82446 24.41153,4.56055 6.54414,0.46406 -21.63842,15.49628 -26.48203,18.12059 5.74309,-1.96183 44.4852,-12.50711 33.56925,-20.10163 -4.99975,-3.46602 -16.57079,-5.53667 -23.35931,-7.28408 a 43.375274,40.897752 0 0 0 5.24753,-4.49975 c 10.0572,1.55539 26.30553,2.79714 47.03429,-0.0544 10.4679,-1.43698 -27.55802,31.4534 -34.07161,37.1597 8.20394,-4.98301 64.61657,-34.33056 44.37659,-42.61636 M 207.43686,276.44392 c -3.49609,-0.58247 -8.51281,-1.91063 -14.09298,-3.354 -10.05041,-12.84956 -24.80526,-32.71756 -17.64337,-30.5381 a 163.1486,153.82983 0 0 0 17.52457,4.34292 c 0.38355,9.60757 6.40498,17.70775 16.11256,23.68927 a 30.650186,28.899499 0 0 0 -1.90078,5.85991 m 20.3486,-62.01711 c 0,0 12.75224,-9.74518 28.49143,-9.74518 15.7392,0 28.49483,9.74518 28.49483,9.74518 0,0 -9.69061,-2.28187 -22.5956,-2.86754 12.90159,2.18586 22.58881,10.68289 22.58881,10.68289 0,0 -12.75563,-3.89807 -28.48804,-3.89807 -15.73919,0 -28.49483,3.89487 -28.49483,3.89487 0,0 9.69062,-8.49703 22.59561,-10.68289 -12.90159,0.58887 -22.59221,2.87074 -22.59221,2.87074 m -4.30393,64.77905 a 15.27418,14.401745 0 1 1 30.54836,0 15.27418,14.401745 0 0 1 -30.54836,0 m 32.79536,25.97434 c -5.46476,0 -9.89088,-2.4739 -9.89088,-5.52387 0,-3.04037 4.42612,-0.61127 9.89088,-0.61127 5.46137,0 9.89088,-2.4291 9.89088,0.61127 0,3.04997 -4.42951,5.52387 -9.89088,5.52387 m 17.52118,-11.5726 a 15.27418,14.401745 0 1 1 0,-28.80349 15.27418,14.401745 0 0 1 0,28.80349 m 45.53063,-46.71286 a 163.94964,154.58512 0 0 0 17.52458,-4.34292 c 7.1585,-2.17946 -7.59296,17.68854 -17.64337,30.5381 -5.58357,1.44337 -10.59689,2.77153 -14.09298,3.354 a 30.616243,28.867495 0 0 0 -1.90079,-5.85671 c 9.70759,-5.98472 15.72901,-14.0849 16.11256,-23.69247"
           fill="#000000"
           id="path32981"
           style="fill:#d4aa00;stroke-width:1.27305" />
        <path
           d="m 192.0914,320.99012 c -1.40183,-2.33629 -5.02011,-8.31141 -8.95067,-15.16024 a 174.79092,164.80715 0 0 1 -5.58695,-0.55047 c 6.46946,7.30649 12.52143,13.44163 14.53762,15.71071"
           fill="#000000"
           id="path32983"
           style="fill:#d4aa00;stroke-width:1.27305" />
        <rect
           style="fill:#1c1c1c;fill-opacity:1;stroke-width:0;stroke-linecap:square;stroke-linejoin:round"
           id="rect34069-1"
           width="27.359491"
           height="3.0496705"
           x="253.6422"
           y="241.08092"
           transform="matrix(0.99694003,0.07817021,-0.12841775,0.99172016,0,0)" />
        <rect
           style="fill:#1c1c1c;fill-opacity:1;stroke:#1c1c1c;stroke-width:0.201736;stroke-linecap:square;stroke-linejoin:round;stroke-dasharray:none;stroke-opacity:1"
           id="rect36013"
           width="2.2914441"
           height="0.21074119"
           x="255.17735"
           y="281.2865" />
        <rect
           style="fill:none;fill-opacity:1;stroke:#1c1c1c;stroke-width:0.542268;stroke-linecap:square;stroke-linejoin:round;stroke-dasharray:none;stroke-opacity:1"
           id="rect35765"
           width="33.133835"
           height="27.518085"
           x="222.04352"
           y="265.56696" />
        <rect
           style="fill:none;fill-opacity:1;stroke:#1c1c1c;stroke-width:0.542268;stroke-linecap:square;stroke-linejoin:round;stroke-dasharray:none;stroke-opacity:1"
           id="rect35884"
           width="33.133835"
           height="27.518085"
           x="257.46878"
           y="265.56696" />
        <rect
           style="fill:#1c1c1c;fill-opacity:1;stroke-width:0;stroke-linecap:square;stroke-linejoin:round"
           id="rect47991"
           width="27.359491"
           height="3.0496705"
           x="-165.23163"
           y="335.92978"
           transform="matrix(-0.94273818,0.33353369,0.38071809,0.92469116,0,0)" />
        <rect
           style="fill:#1c1c1c;fill-opacity:1;stroke:none;stroke-width:1.17858;stroke-linecap:round;stroke-linejoin:round;stroke-dasharray:none;stroke-opacity:1;paint-order:fill markers stroke"
           id="rect36019"
           width="8.3173361"
           height="1.1413307"
           x="208.38811"
           y="329.1676"
           transform="matrix(0.97025014,-0.26261807,0.26525767,0.99354487,0.40703738,-3.470267)" />
        <rect
           style="fill:#1c1c1c;fill-opacity:1;stroke:none;stroke-width:1.17858;stroke-linecap:round;stroke-linejoin:round;stroke-dasharray:none;stroke-opacity:1;paint-order:fill markers stroke"
           id="rect47989"
           width="8.3173361"
           height="1.1413307"
           x="-283.55704"
           y="198.97162"
           transform="matrix(-0.97025014,-0.26261807,-0.26525767,0.99354487,0.40703738,-3.470267)" />
      </g>
    </g>
  </g>
</svg>
